HIERARCHY
ROOT SpineBase
{
  OFFSET 0.000000 0.000000 0.000000
  CHANNELS 6 Xposition Yposition Zposition Zrotation Xrotation Yrotation
  JOINT SpineMid
  {
    OFFSET 0.000000 30.987838 0.000000
    CHANNELS 3 Zrotation Xrotation Yrotation
    JOINT SpineShoulder
    {
      OFFSET -0.387833 22.998137 -0.818615
      CHANNELS 3 Zrotation Xrotation Yrotation
      JOINT Neck
      {
        OFFSET -0.259220 7.609734 -0.589301
        CHANNELS 3 Zrotation Xrotation Yrotation
        JOINT Head
        {
          OFFSET -1.011274 12.737140 4.093156
          CHANNELS 3 Zrotation Xrotation Yrotation
          End Site
          {
            OFFSET 0 0 0
          }
        }
      }
      JOINT ShoulderLeft
      {
        OFFSET -9.121829 -7.912492 -16.775010
        CHANNELS 3 Zrotation Xrotation Yrotation
        JOINT ElbowLeft
        {
          OFFSET -1.617278 -22.662270 -0.321808
          CHANNELS 3 Zrotation Xrotation Yrotation
          JOINT WristLeft
          {
            OFFSET -5.107390 -18.700513 10.712838
            CHANNELS 3 Zrotation Xrotation Yrotation
            JOINT HandLeft
            {
              OFFSET -0.861155 -2.576326 -3.172956
              CHANNELS 3 Zrotation Xrotation Yrotation
              JOINT HandTipLeft
              {
                OFFSET -3.123441 -7.240206 1.320534
                CHANNELS 3 Zrotation Xrotation Yrotation
                End Site
                {
                  OFFSET 0 0 0
                }
              }
              JOINT ThumbLeft
              {
                OFFSET 3.006087 -0.511677 -0.367106
                CHANNELS 3 Zrotation Xrotation Yrotation
                End Site
                {
                  OFFSET 0 0 0
                }
              }
            }
          }
        }
      }
      JOINT ShoulderRight
      {
        OFFSET -2.141151 -5.575227 -12.460247
        CHANNELS 3 Zrotation Xrotation Yrotation
        JOINT ElbowRight
        {
          OFFSET -7.536153 -21.550523 -4.177977
          CHANNELS 3 Zrotation Xrotation Yrotation
          JOINT WristRight
          {
            OFFSET -5.441315 -20.908364 4.922500
            CHANNELS 3 Zrotation Xrotation Yrotation
            JOINT HandRight
            {
              OFFSET -1.693478 -7.158261 3.571620
              CHANNELS 3 Zrotation Xrotation Yrotation
              JOINT HandTipRight
              {
                OFFSET -2.477119 -7.031758 1.505283
                CHANNELS 3 Zrotation Xrotation Yrotation
                End Site
                {
                  OFFSET 0 0 0
                }
              }
              JOINT ThumbRight
              {
                OFFSET -2.603470 -1.405668 -3.089791
                CHANNELS 3 Zrotation Xrotation Yrotation
                End Site
                {
                  OFFSET 0 0 0
                }
              }
            }
          }
        }
      }
    }
  }
  JOINT HipLeft
  {
    OFFSET -6.098359 -0.108831 -1.513779
    CHANNELS 3 Zrotation Xrotation Yrotation
    JOINT KneeLeft
    {
      OFFSET 16.619213 -33.731547 3.807434
      CHANNELS 3 Zrotation Xrotation Yrotation
      JOINT AnkleLeft
      {
        OFFSET 3.717366 -35.257124 3.742907
        CHANNELS 3 Zrotation Xrotation Yrotation
        JOINT FootLeft
        {
          OFFSET -13.714680 -4.342774 -4.726963
          CHANNELS 3 Zrotation Xrotation Yrotation
          End Site
          {
            OFFSET 0 0 0
          }
        }
      }
    }
  }
  JOINT HipRight
  {
    OFFSET 3.278592 1.896541 -5.014142
    CHANNELS 3 Zrotation Xrotation Yrotation
    JOINT KneeRight
    {
      OFFSET -10.569502 -29.938113 0.363745
      CHANNELS 3 Zrotation Xrotation Yrotation
      JOINT AnkleRight
      {
        OFFSET 7.793344 -38.411957 -0.768900
        CHANNELS 3 Zrotation Xrotation Yrotation
        JOINT FootRight
        {
          OFFSET 1.534935 -4.773461 -6.128631
          CHANNELS 3 Zrotation Xrotation Yrotation
          End Site
          {
            OFFSET 0 0 0
          }
        }
      }
    }
  }
}
MOTION
Frames: 12
Frame Time: 0.033333
131.144220 75.510211 318.250348 -0.481234 -0.576613 21.536686 0.659320 0.359672 -21.541177 -0.000000 0.000000 0.000000 -0.000000 0.000000 0.000000 0.000000 0.000000 0.000000 -0.862053 -0.502851 0.044323 0.862475 0.502127 -0.051886 3.175261 -2.609580 -3.081091 -2.224610 3.077411 3.123667 0.000000 0.000000 0.000000 0.000000 0.000000 0.000000 -0.000000 0.000000 0.000000 -0.000000 0.000000 0.000000 1.507918 1.403992 0.405515 3.547876 2.683826 -0.881169 0.000000 0.000000 0.000000 0.000000 0.000000 0.000000 0.659320 0.359672 -21.541177 -1.364626 1.040826 -0.022787 3.708057 0.458348 -7.592704 0.000000 0.000000 0.000000 -1.404117 0.693407 -21.390077 2.222495 1.640321 0.096269 -27.372403 -57.073766 -0.248815 0.000000 0.000000 0.000000
131.107537 75.482152 318.253101 -0.518629 -0.601276 22.014806 0.706212 0.363001 -22.019764 -0.000000 0.000000 0.000000 -0.000000 0.000000 0.000000 0.000000 0.000000 0.000000 -0.850945 -0.471612 0.042218 0.851321 0.470933 -0.049219 2.815957 -2.464710 -2.676651 -2.930372 2.327480 2.796780 0.000000 0.000000 0.000000 0.000000 0.000000 0.000000 -0.000000 0.000000 0.000000 -0.000000 0.000000 0.000000 1.051088 1.014517 0.276956 3.117840 1.789078 -0.428898 0.000000 0.000000 0.000000 0.000000 0.000000 0.000000 1.622984 0.021510 -21.899582 -2.326039 0.990108 -0.148791 4.281061 1.313106 -11.108561 0.000000 0.000000 0.000000 -0.940209 0.556615 -21.872142 1.626864 1.482365 0.071311 -27.125045 -56.684661 0.882501 0.000000 0.000000 0.000000
131.076825 75.474850 318.264871 -0.548663 -0.638318 22.399767 0.750521 0.381045 -22.405319 -0.000000 0.000000 0.000000 -0.000000 0.000000 0.000000 0.000000 0.000000 0.000000 -0.842617 -0.444211 0.040381 0.842955 0.443569 -0.046911 2.582777 -2.557143 -2.350917 -2.000577 2.052773 2.743967 0.000000 0.000000 0.000000 0.000000 0.000000 0.000000 -0.000000 0.000000 0.000000 -0.000000 0.000000 0.000000 0.376783 0.754366 0.007077 2.638638 1.869153 -0.324681 0.000000 0.000000 0.000000 0.000000 0.000000 0.000000 1.894320 -0.087161 -22.267938 -2.508409 1.030105 -0.155976 6.683532 -0.946145 -7.043996 0.000000 0.000000 0.000000 -0.413180 0.477373 -22.285381 1.084183 1.296944 0.078040 -27.075726 -56.072391 2.817170 0.000000 0.000000 0.000000
131.046779 75.443564 318.269878 -0.581424 -0.658194 22.782450 -0.031555 0.358671 -22.815515 0.749215 0.340147 0.030181 -0.000000 0.000000 0.000000 0.000000 0.000000 0.000000 -0.806195 -0.413897 0.038057 0.806491 0.413321 -0.043878 2.557170 -4.690864 -1.566941 -2.693082 4.614293 1.780218 0.000000 0.000000 0.000000 0.000000 0.000000 0.000000 -0.000000 0.000000 0.000000 -0.000000 0.000000 0.000000 -0.000000 0.000000 0.000000 1.298449 2.968879 -0.809487 0.000000 0.000000 0.000000 0.000000 0.000000 0.000000 1.740655 0.063924 -22.643094 -2.460465 1.078788 -0.171392 12.214709 -4.581588 -0.401587 0.000000 0.000000 0.000000 0.790952 0.381658 -22.788424 -0.008463 0.924370 0.187758 -27.268307 -55.812256 4.078172 0.000000 0.000000 0.000000
131.008624 75.408460 318.275625 -0.629243 -0.670826 22.950943 -0.011207 0.355448 -22.985513 0.777965 0.348339 0.031201 -0.000000 0.000000 0.000000 0.000000 0.000000 0.000000 -0.786041 -0.391579 0.036405 0.786308 0.391043 -0.041774 2.249250 -6.780628 -0.399904 -3.500636 6.560820 0.671606 0.000000 0.000000 0.000000 0.000000 0.000000 0.000000 -0.000000 0.000000 0.000000 -0.000000 0.000000 0.000000 -0.000000 0.000000 0.000000 -2.336613 2.580931 -1.353716 0.000000 0.000000 0.000000 0.000000 0.000000 0.000000 1.695713 0.079176 -22.828219 -2.531442 1.273742 -0.148791 17.284714 -6.587550 1.278474 0.000000 0.000000 0.000000 0.841030 0.372310 -22.957360 -0.007187 0.924937 0.187837 -27.698720 -56.074798 4.729656 0.000000 0.000000 0.000000
130.974220 75.385999 318.284327 -0.668427 -0.681801 23.002930 -0.001362 0.347176 -23.039012 0.805132 0.363250 0.032232 -0.000000 0.000000 0.000000 0.000000 0.000000 0.000000 -0.808432 -0.386323 0.036308 0.808695 0.385772 -0.041756 1.796231 -7.929885 0.623464 -3.379818 6.864282 0.004302 0.000000 0.000000 0.000000 0.000000 0.000000 0.000000 -0.000000 0.000000 0.000000 -0.000000 0.000000 0.000000 -0.000000 0.000000 0.000000 -2.794373 2.032716 -1.258790 0.000000 0.000000 0.000000 0.000000 0.000000 0.000000 0.881725 0.366332 -23.009726 -1.628606 1.420186 -0.002981 25.028629 -8.110253 -9.086367 0.000000 0.000000 0.000000 0.881725 0.366332 -23.009726 -0.089669 0.898685 0.184835 -27.894675 -56.541389 4.402818 0.000000 0.000000 0.000000
130.944745 75.371546 318.280358 -0.694551 -0.669011 22.861451 -0.006293 0.331947 -22.898547 0.829087 0.366100 0.033036 -0.000000 0.000000 0.000000 0.000000 0.000000 0.000000 -0.933824 -0.455846 0.042055 1.123864 1.266317 -0.166212 2.282607 -8.803671 -0.036173 -4.075165 6.765440 0.961038 0.000000 0.000000 0.000000 0.000000 0.000000 0.000000 -0.000000 0.000000 0.000000 -0.770201 -0.546794 -0.042584 1.886152 1.125682 0.441356 -3.839747 2.279093 -1.965828 0.000000 0.000000 0.000000 0.000000 0.000000 0.000000 0.899918 0.346572 -22.868228 -1.533780 1.634568 0.031491 28.733210 -9.296740 -19.244369 0.000000 0.000000 0.000000 0.899918 0.346572 -22.868228 -0.087467 0.925530 0.190239 -28.115346 -56.853981 4.174330 0.000000 0.000000 0.000000
130.942817 75.384946 318.258383 -0.681980 -0.630258 22.750223 -0.036278 0.313253 -22.787161 0.836356 0.355925 0.033174 -0.000000 0.000000 0.000000 0.000000 0.000000 0.000000 -1.061683 -0.507625 0.046572 1.244523 1.343350 -0.184065 2.370326 -7.954523 -0.464795 -2.627356 7.088289 0.947251 0.000000 0.000000 0.000000 0.000000 0.000000 0.000000 -0.000000 0.000000 0.000000 -1.021492 -0.466396 -0.122875 3.161419 0.842201 1.077075 -4.783140 2.588246 -2.524969 0.000000 0.000000 0.000000 0.000000 0.000000 0.000000 1.630459 -0.144113 -22.723914 -2.451016 1.920322 0.016939 28.143057 -8.572077 -28.007946 0.000000 0.000000 0.000000 0.872662 0.317446 -22.756391 0.362847 0.908386 0.174026 -28.298604 -56.767087 3.628713 0.000000 0.000000 0.000000
130.933924 75.368064 318.259223 -0.681776 -0.612509 22.489157 -0.050720 0.313791 -22.526137 0.848454 0.342513 0.033440 -0.000000 0.000000 0.000000 0.000000 0.000000 0.000000 -1.160378 -0.563423 0.050948 1.315317 1.355552 -0.194275 2.541654 -6.568527 -1.153420 -1.362207 7.337773 1.014063 0.000000 0.000000 0.000000 0.000000 0.000000 0.000000 -0.000000 0.000000 0.000000 -1.107536 -0.308768 -0.182810 3.310118 0.139875 1.314075 -3.267276 2.454123 -2.133978 0.000000 0.000000 0.000000 0.000000 0.000000 0.000000 1.710795 -0.212592 -22.461357 -2.605712 2.131245 0.035157 26.553181 -7.275728 -33.500881 0.000000 0.000000 0.000000 0.864227 0.305101 -22.495102 0.041828 1.110014 0.223913 -28.159762 -57.014727 3.038334 0.000000 0.000000 0.000000
130.926177 75.367848 318.252638 -0.679600 -0.587274 22.307343 -0.060262 0.311613 -22.344010 0.853433 0.322387 0.033413 -0.000000 0.000000 0.000000 0.000000 0.000000 0.000000 -1.219809 -0.552833 0.050855 1.220356 0.551625 -0.062615 3.081564 -5.991461 -1.759379 -1.799384 8.537602 1.057948 0.000000 0.000000 0.000000 0.000000 0.000000 0.000000 -0.000000 0.000000 0.000000 -0.931268 0.042945 -0.229617 2.686327 -1.348030 1.433292 -0.472580 3.637009 -1.777370 0.000000 0.000000 0.000000 0.000000 0.000000 0.000000 1.727968 -0.257357 -22.281966 -2.683644 2.236494 0.046330 20.222677 -3.047823 -33.594555 0.000000 0.000000 0.000000 0.851662 0.285324 -22.312947 0.023459 1.369033 0.276946 -28.463788 -57.625689 1.674650 0.000000 0.000000 0.000000
130.926033 75.379396 318.248055 -0.667366 -0.566875 22.115918 -0.069623 0.315020 -22.151930 0.850282 0.301767 0.033115 -0.000000 0.000000 0.000000 0.000000 0.000000 0.000000 -1.233055 -0.488236 0.047066 1.233500 0.487110 -0.057563 3.148469 -5.084458 -2.176904 -1.541540 8.092810 1.273846 0.000000 0.000000 0.000000 0.000000 0.000000 0.000000 -0.000000 0.000000 0.000000 -0.000000 0.000000 0.000000 1.255125 -2.170879 1.155723 1.613698 3.792662 -1.242294 0.000000 0.000000 0.000000 0.000000 0.000000 0.000000 1.692963 -0.254128 -22.090186 -2.780090 2.292104 0.043497 16.337488 -1.335236 -29.108006 0.000000 0.000000 0.000000 0.831689 0.273878 -22.121208 -0.277571 1.524918 0.318728 -28.320131 -57.502206 2.212034 0.000000 0.000000 0.000000
130.928543 75.410538 318.260635 -0.652291 -0.575079 21.943661 -0.068685 0.329320 -21.979055 0.838886 0.295793 0.032682 -0.000000 0.000000 0.000000 0.000000 0.000000 0.000000 -1.069628 -0.288724 0.033078 1.069808 0.288056 -0.038462 2.754353 -6.387134 -1.193565 -0.784658 10.797359 -0.340118 0.000000 0.000000 0.000000 0.000000 0.000000 0.000000 -0.000000 0.000000 0.000000 -0.000000 0.000000 0.000000 1.337013 -2.421093 1.258402 2.922675 4.196011 -1.201368 0.000000 0.000000 0.000000 0.000000 0.000000 0.000000 1.922982 -0.456250 -21.938220 -3.256483 2.527033 0.071610 10.369828 0.689615 -22.745385 0.000000 0.000000 0.000000 1.837582 -0.736730 -21.726213 -1.986982 2.256009 0.158150 -29.260429 -59.126970 0.864241 0.000000 0.000000 0.000000
